# vtk DataFile Version 3.0
Droplet Combustion
ASCII
DATASET STRUCTURED_GRID
DIMENSIONS 16 10 1
POINTS 160 float
       -6.0000        -4.3318         0.0000
       -6.0000        -3.1909         0.0000
       -6.0000        -2.0861         0.0000
       -6.0000        -1.0000         0.0000
       -6.0000         0.0853         0.0000
       -6.0000         1.1850         0.0000
       -6.0000         2.3128         0.0000
       -6.0000         3.4806         0.0000
       -6.0000         4.6987         0.0000
       -6.0000         5.9749         0.0000
       -6.0000         7.3146         0.0000
       -6.0000         8.7206         0.0000
       -6.0000        10.1939         0.0000
       -6.0000        11.7333         0.0000
       -6.0000        13.3366         0.0000
       -6.0000        15.0000         0.0000
       -4.6667        -4.3318         0.0000
       -4.6667        -3.1909         0.0000
       -4.6667        -2.0861         0.0000
       -4.6667        -1.0000         0.0000
       -4.6667         0.0853         0.0000
       -4.6667         1.1850         0.0000
       -4.6667         2.3128         0.0000
       -4.6667         3.4806         0.0000
       -4.6667         4.6987         0.0000
       -4.6667         5.9749         0.0000
       -4.6667         7.3146         0.0000
       -4.6667         8.7206         0.0000
       -4.6667        10.1939         0.0000
       -4.6667        11.7333         0.0000
       -4.6667        13.3366         0.0000
       -4.6667        15.0000         0.0000
       -3.3333        -4.3318         0.0000
       -3.3333        -3.1909         0.0000
       -3.3333        -2.0861         0.0000
       -3.3333        -1.0000         0.0000
       -3.3333         0.0853         0.0000
       -3.3333         1.1850         0.0000
       -3.3333         2.3128         0.0000
       -3.3333         3.4806         0.0000
       -3.3333         4.6987         0.0000
       -3.3333         5.9749         0.0000
       -3.3333         7.3146         0.0000
       -3.3333         8.7206         0.0000
       -3.3333        10.1939         0.0000
       -3.3333        11.7333         0.0000
       -3.3333        13.3366         0.0000
       -3.3333        15.0000         0.0000
       -2.0000        -4.3318         0.0000
       -2.0000        -3.1909         0.0000
       -2.0000        -2.0861         0.0000
       -2.0000        -1.0000         0.0000
       -2.0000         0.0853         0.0000
       -2.0000         1.1850         0.0000
       -2.0000         2.3128         0.0000
       -2.0000         3.4806         0.0000
       -2.0000         4.6987         0.0000
       -2.0000         5.9749         0.0000
       -2.0000         7.3146         0.0000
       -2.0000         8.7206         0.0000
       -2.0000        10.1939         0.0000
       -2.0000        11.7333         0.0000
       -2.0000        13.3366         0.0000
       -2.0000        15.0000         0.0000
       -0.6667        -4.3318         0.0000
       -0.6667        -3.1909         0.0000
       -0.6667        -2.0861         0.0000
       -0.6667        -1.0000         0.0000
       -0.6667         0.0853         0.0000
       -0.6667         1.1850         0.0000
       -0.6667         2.3128         0.0000
       -0.6667         3.4806         0.0000
       -0.6667         4.6987         0.0000
       -0.6667         5.9749         0.0000
       -0.6667         7.3146         0.0000
       -0.6667         8.7206         0.0000
       -0.6667        10.1939         0.0000
       -0.6667        11.7333         0.0000
       -0.6667        13.3366         0.0000
       -0.6667        15.0000         0.0000
        0.6667        -4.3318         0.0000
        0.6667        -3.1909         0.0000
        0.6667        -2.0861         0.0000
        0.6667        -1.0000         0.0000
        0.6667         0.0853         0.0000
        0.6667         1.1850         0.0000
        0.6667         2.3128         0.0000
        0.6667         3.4806         0.0000
        0.6667         4.6987         0.0000
        0.6667         5.9749         0.0000
        0.6667         7.3146         0.0000
        0.6667         8.7206         0.0000
        0.6667        10.1939         0.0000
        0.6667        11.7333         0.0000
        0.6667        13.3366         0.0000
        0.6667        15.0000         0.0000
        2.0000        -4.3318         0.0000
        2.0000        -3.1909         0.0000
        2.0000        -2.0861         0.0000
        2.0000        -1.0000         0.0000
        2.0000         0.0853         0.0000
        2.0000         1.1850         0.0000
        2.0000         2.3128         0.0000
        2.0000         3.4806         0.0000
        2.0000         4.6987         0.0000
        2.0000         5.9749         0.0000
        2.0000         7.3146         0.0000
        2.0000         8.7206         0.0000
        2.0000        10.1939         0.0000
        2.0000        11.7333         0.0000
        2.0000        13.3366         0.0000
        2.0000        15.0000         0.0000
        3.3333        -4.3318         0.0000
        3.3333        -3.1909         0.0000
        3.3333        -2.0861         0.0000
        3.3333        -1.0000         0.0000
        3.3333         0.0853         0.0000
        3.3333         1.1850         0.0000
        3.3333         2.3128         0.0000
        3.3333         3.4806         0.0000
        3.3333         4.6987         0.0000
        3.3333         5.9749         0.0000
        3.3333         7.3146         0.0000
        3.3333         8.7206         0.0000
        3.3333        10.1939         0.0000
        3.3333        11.7333         0.0000
        3.3333        13.3366         0.0000
        3.3333        15.0000         0.0000
        4.6667        -4.3318         0.0000
        4.6667        -3.1909         0.0000
        4.6667        -2.0861         0.0000
        4.6667        -1.0000         0.0000
        4.6667         0.0853         0.0000
        4.6667         1.1850         0.0000
        4.6667         2.3128         0.0000
        4.6667         3.4806         0.0000
        4.6667         4.6987         0.0000
        4.6667         5.9749         0.0000
        4.6667         7.3146         0.0000
        4.6667         8.7206         0.0000
        4.6667        10.1939         0.0000
        4.6667        11.7333         0.0000
        4.6667        13.3366         0.0000
        4.6667        15.0000         0.0000
        6.0000        -4.3318         0.0000
        6.0000        -3.1909         0.0000
        6.0000        -2.0861         0.0000
        6.0000        -1.0000         0.0000
        6.0000         0.0853         0.0000
        6.0000         1.1850         0.0000
        6.0000         2.3128         0.0000
        6.0000         3.4806         0.0000
        6.0000         4.6987         0.0000
        6.0000         5.9749         0.0000
        6.0000         7.3146         0.0000
        6.0000         8.7206         0.0000
        6.0000        10.1939         0.0000
        6.0000        11.7333         0.0000
        6.0000        13.3366         0.0000
        6.0000        15.0000         0.0000
POINT_DATA 160
SCALARS VEL_MAGNITUDE float
LOOKUP_TABLE default
        0.5000
        0.2500
        0.0000
        0.0000
        0.0000
        0.0000
        0.0000
        0.0000
        0.0000
        0.0000
        0.0000
        0.0000
        0.0000
        0.0000
        0.0000
        0.0000
        0.5000
        0.2612
        0.0095
        0.0049
        0.0051
        0.0046
        0.0046
        0.0047
        0.0047
        0.0047
        0.0047
        0.0047
        0.0052
        0.0058
        0.0031
        0.0000
        0.5000
        0.2611
        0.0104
        0.0065
        0.0067
        0.0058
        0.0058
        0.0058
        0.0058
        0.0058
        0.0058
        0.0058
        0.0058
        0.0058
        0.0043
        0.0000
        0.5000
        0.2611
        0.0104
        0.0066
        0.0067
        0.0067
        0.0067
        0.0067
        0.0067
        0.0067
        0.0067
        0.0067
        0.0067
        0.0085
        0.0068
        0.0000
        0.5000
        0.2611
        0.0104
        0.0066
        0.0067
        0.0068
        0.0068
        0.0068
        0.0068
        0.0068
        0.0068
        0.0068
        0.0068
        0.0085
        0.0069
        0.0000
        0.5000
        0.2611
        0.0104
        0.0066
        0.0067
        0.0068
        0.0068
        0.0068
        0.0068
        0.0068
        0.0068
        0.0068
        0.0068
        0.0067
        0.0055
        0.0000
        0.5000
        0.2611
        0.0104
        0.0066
        0.0067
        0.0068
        0.0068
        0.0068
        0.0068
        0.0068
        0.0068
        0.0067
        0.0067
        0.0067
        0.0055
        0.0000
        0.5000
        0.2611
        0.0104
        0.0065
        0.0067
        0.0067
        0.0067
        0.0067
        0.0067
        0.0067
        0.0067
        0.0067
        0.0067
        0.0067
        0.0054
        0.0000
        0.5000
        0.2611
        0.0095
        0.0049
        0.0051
        0.0051
        0.0051
        0.0051
        0.0051
        0.0051
        0.0051
        0.0051
        0.0051
        0.0051
        0.0033
        0.0000
        0.5000
        0.2500
        0.0000
        0.0000
        0.0000
        0.0000
        0.0000
        0.0000
        0.0000
        0.0000
        0.0000
        0.0000
        0.0000
        0.0000
        0.0000
        0.0000
SCALARS T float
LOOKUP_TABLE default
        1.0000         0.0505         0.0500         0.0500         0.0500         0.0500         0.0500         0.0500         0.0500         0.0500         0.0500         0.0500         0.0500         0.0500         0.0500         0.0500 
        1.0000         0.0505         0.0500         0.0500         0.0500         0.0500         0.0500         0.0500         0.0500         0.0500         0.0500         0.0500         0.0500         0.0500         0.0500         0.0500 
        1.0000         0.0505         0.0500         0.0500         0.0500         0.0500         0.0500         0.0500         0.0500         0.0500         0.0500         0.0500         0.0500         0.0500         0.0500         0.0500 
        1.0000         0.0505         0.0500         0.0500         0.0500         0.0500         0.0500         0.0500         0.0500         0.0500         0.0500         0.0500         0.0500         0.0500         0.0500         0.0500 
        1.0000         0.0505         0.0500         0.0500         0.0500         0.0500         0.0500         0.0500         0.0500         0.0500         0.0500         0.0500         0.0500         0.0500         0.0500         0.0500 
        1.0000         0.0505         0.0500         0.0500         0.0500         0.0500         0.0500         0.0500         0.0500         0.0500         0.0500         0.0500         0.0500         0.0500         0.0500         0.0500 
        1.0000         0.0505         0.0500         0.0500         0.0500         0.0500         0.0500         0.0500         0.0500         0.0500         0.0500         0.0500         0.0500         0.0500         0.0500         0.0500 
        1.0000         0.0505         0.0500         0.0500         0.0500         0.0500         0.0500         0.0500         0.0500         0.0500         0.0500         0.0500         0.0500         0.0500         0.0500         0.0500 
        1.0000         0.0505         0.0500         0.0500         0.0500         0.0500         0.0500         0.0500         0.0500         0.0500         0.0500         0.0500         0.0500         0.0500         0.0500         0.0500 
        1.0000         0.0505         0.0500         0.0500         0.0500         0.0500         0.0500         0.0500         0.0500         0.0500         0.0500         0.0500         0.0500         0.0500         0.0500         0.0500 
SCALARS P float
LOOKUP_TABLE default
       58.9371        58.9371         1.1906         1.1735         1.1741         1.0882         1.0909         1.0945         1.0987         1.1036         1.1087         1.1140         1.1689         1.1244         1.1224         1.1204 
       58.9371        58.9371         1.1906         1.1735         1.1741         1.0882         1.0909         1.0945         1.0987         1.1036         1.1087         1.1140         1.1689         1.1244         1.1224         1.1204 
       58.7063        58.7063         1.0103         1.0000         1.0006         1.0893         1.0920         1.0956         1.1000         1.1049         1.1101         1.1154         1.1208         1.1260         1.1737         1.2215 
       58.7063        58.7063         1.0103         1.0000         1.0000         1.0000         1.0000         1.0000         1.0000         1.0000         1.0000         1.0000         1.0000         1.0000         1.0433         1.0867 
       58.7063        58.7063         1.0103         1.0000         1.0000         1.0000         1.0000         1.0000         1.0000         1.0000         1.0000         1.0000         1.0000         1.0000         1.0433         1.0866 
       58.7063        58.7063         1.0103         1.0000         1.0000         1.0000         1.0000         1.0000         1.0000         1.0000         1.0000         1.0000         1.0000         1.0000         1.0433         1.0866 
       58.7063        58.7063         1.0103         1.0000         1.0000         1.0000         1.0000         1.0000         1.0000         1.0000         1.0000         1.0000         1.0000         1.0000         1.0433         1.0866 
       58.7063        58.7063         1.0102         1.0000         1.0000         1.0000         1.0000         1.0000         1.0000         1.0000         1.0000         1.0000         1.0000         1.0000         1.0433         1.0866 
       58.4601        58.4601         0.8415         0.8270         0.8259         0.8225         0.8171         0.8099         0.8013         0.7916         0.7812         0.7706         0.7600         0.7496         0.7831         0.8165 
       58.4601        58.4601         0.8415         0.8270         0.8259         0.8225         0.8171         0.8099         0.8013         0.7916         0.7812         0.7706         0.7600         0.7496         0.7831         0.8165 


VECTORS Vectors float
        0.0000         0.5000         0.0000         0.0000         0.2500         0.0000         0.0000         0.0000         0.0000         0.0000         0.0000         0.0000         0.0000         0.0000         0.0000         0.0000         0.0000         0.0000         0.0000         0.0000         0.0000         0.0000         0.0000         0.0000         0.0000         0.0000         0.0000         0.0000         0.0000         0.0000         0.0000         0.0000         0.0000         0.0000         0.0000         0.0000         0.0000         0.0000         0.0000         0.0000         0.0000         0.0000         0.0000         0.0000         0.0000         0.0000         0.0000         0.0000 
        0.0000         0.5000         0.0000        -0.0024         0.2611         0.0000        -0.0025         0.0092         0.0000        -0.0025        -0.0042         0.0000        -0.0025        -0.0045         0.0000        -0.0012        -0.0045         0.0000        -0.0012        -0.0045         0.0000        -0.0012        -0.0045         0.0000        -0.0012        -0.0045         0.0000        -0.0012        -0.0045         0.0000        -0.0012        -0.0045         0.0000        -0.0012        -0.0045         0.0000        -0.0012        -0.0051         0.0000        -0.0012        -0.0056         0.0000        -0.0012        -0.0028         0.0000         0.0000         0.0000         0.0000 
        0.0000         0.5000         0.0000        -0.0050         0.2611         0.0000        -0.0050         0.0091         0.0000        -0.0050        -0.0042         0.0000        -0.0050        -0.0045         0.0000        -0.0037        -0.0045         0.0000        -0.0037        -0.0045         0.0000        -0.0037        -0.0045         0.0000        -0.0037        -0.0045         0.0000        -0.0037        -0.0045         0.0000        -0.0037        -0.0045         0.0000        -0.0037        -0.0045         0.0000        -0.0037        -0.0045         0.0000        -0.0038        -0.0045         0.0000        -0.0037        -0.0022         0.0000         0.0000         0.0000         0.0000 
        0.0000         0.5000         0.0000        -0.0050         0.2611         0.0000        -0.0050         0.0091         0.0000        -0.0050        -0.0042         0.0000        -0.0050        -0.0045         0.0000        -0.0050        -0.0045         0.0000        -0.0050        -0.0045         0.0000        -0.0050        -0.0045         0.0000        -0.0050        -0.0045         0.0000        -0.0050        -0.0045         0.0000        -0.0050        -0.0045         0.0000        -0.0050        -0.0045         0.0000        -0.0050        -0.0045         0.0000        -0.0050        -0.0069         0.0000        -0.0050        -0.0046         0.0000         0.0000         0.0000         0.0000 
        0.0000         0.5000         0.0000        -0.0050         0.2611         0.0000        -0.0050         0.0091         0.0000        -0.0050        -0.0042         0.0000        -0.0050        -0.0045         0.0000        -0.0050        -0.0045         0.0000        -0.0050        -0.0045         0.0000        -0.0050        -0.0045         0.0000        -0.0050        -0.0045         0.0000        -0.0050        -0.0045         0.0000        -0.0050        -0.0045         0.0000        -0.0050        -0.0045         0.0000        -0.0050        -0.0045         0.0000        -0.0050        -0.0069         0.0000        -0.0051        -0.0046         0.0000         0.0000         0.0000         0.0000 
        0.0000         0.5000         0.0000        -0.0050         0.2611         0.0000        -0.0050         0.0091         0.0000        -0.0050        -0.0042         0.0000        -0.0050        -0.0045         0.0000        -0.0050        -0.0045         0.0000        -0.0050        -0.0045         0.0000        -0.0050        -0.0045         0.0000        -0.0050        -0.0045         0.0000        -0.0050        -0.0045         0.0000        -0.0050        -0.0045         0.0000        -0.0050        -0.0045         0.0000        -0.0050        -0.0045         0.0000        -0.0050        -0.0045         0.0000        -0.0051        -0.0022         0.0000         0.0000         0.0000         0.0000 
        0.0000         0.5000         0.0000        -0.0050         0.2611         0.0000        -0.0050         0.0091         0.0000        -0.0050        -0.0042         0.0000        -0.0050        -0.0045         0.0000        -0.0050        -0.0045         0.0000        -0.0050        -0.0045         0.0000        -0.0050        -0.0045         0.0000        -0.0050        -0.0045         0.0000        -0.0050        -0.0045         0.0000        -0.0050        -0.0045         0.0000        -0.0050        -0.0045         0.0000        -0.0050        -0.0045         0.0000        -0.0050        -0.0045         0.0000        -0.0050        -0.0022         0.0000         0.0000         0.0000         0.0000 
        0.0000         0.5000         0.0000        -0.0050         0.2611         0.0000        -0.0050         0.0091         0.0000        -0.0050        -0.0042         0.0000        -0.0050        -0.0045         0.0000        -0.0050        -0.0045         0.0000        -0.0050        -0.0045         0.0000        -0.0050        -0.0045         0.0000        -0.0050        -0.0045         0.0000        -0.0050        -0.0045         0.0000        -0.0050        -0.0045         0.0000        -0.0050        -0.0045         0.0000        -0.0050        -0.0045         0.0000        -0.0050        -0.0045         0.0000        -0.0050        -0.0022         0.0000         0.0000         0.0000         0.0000 
        0.0000         0.5000         0.0000        -0.0024         0.2611         0.0000        -0.0025         0.0091         0.0000        -0.0025        -0.0042         0.0000        -0.0025        -0.0045         0.0000        -0.0025        -0.0045         0.0000        -0.0025        -0.0045         0.0000        -0.0025        -0.0045         0.0000        -0.0025        -0.0045         0.0000        -0.0025        -0.0045         0.0000        -0.0025        -0.0045         0.0000        -0.0024        -0.0045         0.0000        -0.0024        -0.0045         0.0000        -0.0024        -0.0045         0.0000        -0.0024        -0.0022         0.0000         0.0000         0.0000         0.0000 
        0.0000         0.5000         0.0000         0.0000         0.2500         0.0000         0.0000         0.0000         0.0000         0.0000         0.0000         0.0000         0.0000         0.0000         0.0000         0.0000         0.0000         0.0000         0.0000         0.0000         0.0000         0.0000         0.0000         0.0000         0.0000         0.0000         0.0000         0.0000         0.0000         0.0000         0.0000         0.0000         0.0000         0.0000         0.0000         0.0000         0.0000         0.0000         0.0000         0.0000         0.0000         0.0000         0.0000         0.0000         0.0000         0.0000         0.0000         0.0000 
